<svg xmlns="http://www.w3.org/2000/svg" viewBox="0 0 512 512">
  <defs>
    <!-- Golden gradient for pen/notes -->
    <linearGradient id="gold" x1="0%" y1="0%" x2="100%" y2="100%">
      <stop offset="0%" style="stop-color:#D4AF37"/>
      <stop offset="50%" style="stop-color:#FFD700"/>
      <stop offset="100%" style="stop-color:#B8860B"/>
    </linearGradient>
  </defs>
  
  <!-- Black circle background -->
  <circle cx="256" cy="256" r="256" fill="#000000"/>
  
  <!-- Decorative golden notes around the edge -->
  <g fill="url(#gold)" opacity="0.8">
    <!-- Top note -->
    <ellipse cx="256" cy="42" rx="8" ry="12"/>
    <rect x="262" y="30" width="3" height="28"/>
    <path d="M265 30 Q275 25 275 35 Q275 40 270 42" fill="none" stroke="url(#gold)" stroke-width="2"/>
    
    <!-- Right note -->
    <ellipse cx="470" cy="256" rx="12" ry="8" transform="rotate(90 470 256)"/>
    <rect x="470" y="244" width="3" height="28" transform="rotate(90 471 258)"/>
    
    <!-- Bottom note -->
    <ellipse cx="256" cy="470" rx="8" ry="12"/>
    <rect x="262" y="458" width="3" height="28"/>
    <path d="M265 458 Q275 453 275 463 Q275 468 270 470" fill="none" stroke="url(#gold)" stroke-width="2"/>
    
    <!-- Left note -->
    <ellipse cx="42" cy="256" rx="12" ry="8" transform="rotate(90 42 256)"/>
    <rect x="42" y="244" width="3" height="28" transform="rotate(90 43 258)"/>
    
    <!-- Diagonal notes -->
    <circle cx="400" cy="112" r="6"/>
    <circle cx="112" cy="400" r="6"/>
    <circle cx="400" cy="400" r="6"/>
    <circle cx="112" cy="112" r="6"/>
  </g>
  
  <!-- White paper with slight angle -->
  <g transform="translate(256 256) rotate(-5) translate(-256 -256)">
    <rect x="140" y="110" width="232" height="292" rx="8" ry="8" fill="#FAFAFA" stroke="#E0E0E0" stroke-width="1"/>
    
    <!-- Paper lines (hint of writing) -->
    <g stroke="#E8E8E8" stroke-width="1" opacity="0.6">
      <line x1="160" y1="150" x2="352" y2="150"/>
      <line x1="160" y1="180" x2="352" y2="180"/>
      <line x1="160" y1="210" x2="352" y2="210"/>
      <line x1="160" y1="240" x2="352" y2="240"/>
      <line x1="160" y1="270" x2="320" y2="270"/>
      <line x1="160" y1="300" x2="280" y2="300"/>
    </g>
    
    <!-- Faint handwriting strokes -->
    <g stroke="#CCCCCC" stroke-width="1.5" fill="none" opacity="0.4">
      <path d="M165 145 Q175 140 185 147 Q195 154 205 145"/>
      <path d="M215 145 Q225 140 235 147 Q245 154 255 145"/>
      <path d="M165 175 Q180 170 195 177 Q210 184 225 175 Q240 166 255 175"/>
      <path d="M165 205 Q175 200 185 207"/>
    </g>
  </g>
  
  <!-- Golden pen shaped like violin/treble clef key -->
  <g transform="translate(310 180) rotate(25)">
    <!-- Pen body -->
    <rect x="0" y="0" width="24" height="180" rx="4" fill="url(#gold)"/>
    
    <!-- Pen tip (golden nib) -->
    <path d="M4 180 L12 220 L20 180 Z" fill="url(#gold)"/>
    <line x1="12" y1="180" x2="12" y2="210" stroke="#8B6914" stroke-width="1"/>
    
    <!-- Decorative treble clef inspired curve on pen -->
    <path d="M12 30 Q-5 60 12 90 Q29 120 12 150" 
          fill="none" stroke="#FFFFFF" stroke-width="3" opacity="0.4"/>
    
    <!-- Pen clip -->
    <rect x="20" y="20" width="8" height="60" rx="2" fill="#B8860B"/>
    
    <!-- Top of pen -->
    <ellipse cx="12" cy="4" rx="12" ry="4" fill="#B8860B"/>
  </g>
</svg>

